<svg xmlns="http://www.w3.org/2000/svg" width="64" height="64" viewBox="0 0 64 64">
  <!-- Ziegel: kleiner Stapel im Läuferverband mit Schnee obenauf -->
  <g stroke="#3b2a20" stroke-width="2.4" stroke-linejoin="round">
    <rect x="6" y="44" width="25" height="12" rx="2" fill="#b8563a"/>
    <rect x="33" y="44" width="25" height="12" rx="2" fill="#c4603f"/>
    <rect x="12" y="31" width="20" height="12" rx="2" fill="#c96846"/>
    <rect x="33" y="31" width="20" height="12" rx="2" fill="#b3523a"/>
    <rect x="21" y="18" width="23" height="12" rx="2" fill="#c25f41"/>
  </g>
  <g fill="#e28a63" opacity="0.8">
    <rect x="9" y="46.5" width="10" height="2.4" rx="1"/>
    <rect x="36" y="46.5" width="9" height="2.4" rx="1"/>
    <rect x="15" y="33.5" width="8" height="2.4" rx="1"/>
    <rect x="36" y="33.5" width="8" height="2.4" rx="1"/>
    <rect x="24" y="20.5" width="10" height="2.4" rx="1"/>
  </g>
  <path d="M20 19 C22 13 43 12 45.5 18.5 C42 20 38 18.6 35.5 20.2 C31 18.2 25 21 20 19 Z"
        fill="#f4f7fb" stroke="#3b2a20" stroke-width="2" stroke-linejoin="round"/>
</svg>
